<svg width="315" height="90" viewBox="0 0 315 90" fill="none" xmlns="http://www.w3.org/2000/svg">
<path d="M0 88.1371C0.846357 82.0052 1.73119 75.8344 2.65448 69.6248C3.65472 63.4153 4.65497 57.4386 5.65521 51.6947C6.73239 45.8732 7.73263 40.6339 8.65593 35.9767C9.65617 30.9314 10.6564 25.8085 11.6566 20.608C12.6569 15.4075 13.6956 10.1682 14.7728 4.89004L34.9699 2.21216L28.9685 28.5252C27.8913 33.1048 26.7757 38.0336 25.6215 43.3118C24.5444 48.5123 23.5441 53.5576 22.6208 58.4476C21.6975 63.3377 20.9666 67.6843 20.428 71.4877C22.3515 71.3325 24.3905 71.2549 26.5448 71.2549C28.7762 71.1772 30.7382 71.1384 32.4309 71.1384C32.5078 72.9237 32.6617 74.8254 32.8925 76.8435C33.1233 78.784 33.3542 80.4916 33.585 81.9664C33.8928 83.3635 34.0466 84.1397 34.0466 84.295C33.7389 84.295 33.4311 84.295 33.1234 84.295C32.8925 84.295 32.6232 84.2561 32.3155 84.1785H30.4689C27.4681 84.1785 24.1212 84.3338 20.428 84.6442C16.8117 84.8771 13.1955 85.304 9.57923 85.925C6.03991 86.4683 2.84684 87.2057 0 88.1371Z" fill="white"/>
<path d="M52.4847 90C50.1764 90 47.8297 89.4955 45.4445 88.4864C43.0593 87.4774 41.0588 85.925 39.4431 83.8292C37.8273 81.7335 37.0194 79.0556 37.0194 75.7956V74.8642C37.0194 74.4761 37.0579 74.1656 37.1348 73.9327C37.3657 71.9146 37.6734 69.2756 38.0581 66.0155C38.5198 62.7555 39.0584 59.2238 39.6739 55.4204C40.2894 51.5395 40.905 47.6973 41.5205 43.8939C42.213 40.0906 42.8285 36.6365 43.3671 33.5317C44.5212 27.3221 45.4445 22.3157 46.137 18.5123C46.8295 14.7089 47.3681 11.7982 47.7528 9.78008C48.2144 7.68435 48.5607 6.13196 48.7915 5.1229C49.6378 5.04528 50.5227 4.96766 51.446 4.89004C52.4462 4.7348 53.4849 4.61837 54.5621 4.54075C55.6393 4.38551 56.678 4.26908 57.6782 4.19146C58.7554 4.11384 59.7941 4.03623 60.7944 3.95861L67.8345 3.26003C66.8343 7.99483 65.8725 12.4968 64.9492 16.7659C64.1029 20.9573 63.295 24.9547 62.5255 28.7581L57.2166 54.489C56.7549 56.4295 56.4087 58.0595 56.1779 59.379C55.8701 60.621 55.5239 62.2122 55.1392 64.1526C54.8314 66.0155 54.6775 67.7232 54.6775 69.2756C54.6775 70.5175 54.9853 71.5653 55.6008 72.4192C56.2163 73.1954 56.9858 73.5834 57.9091 73.5834C59.2171 73.5834 60.2942 73.0789 61.1406 72.0699C61.987 71.0608 62.6794 69.8189 63.218 68.3441C63.7566 66.8693 64.1798 65.3946 64.4876 63.9198C64.7953 62.3674 65.0646 61.1255 65.2954 60.1941C66.0649 56.6235 66.7573 53.1695 67.3729 49.8318C68.0653 46.4166 68.7578 42.8072 69.4503 39.0039C70.2197 35.2005 71.0661 30.815 71.9894 25.8473C72.6049 22.4321 73.2204 18.978 73.836 15.4851C74.5284 11.9146 75.1824 8.30531 75.798 4.65718L93.3407 3.49289C93.3407 3.49289 92.9944 5.35576 92.3019 9.0815C91.6095 12.8072 90.6092 18.4347 89.3012 25.9638C88.7626 28.8357 88.1471 32.0569 87.4546 35.6274C86.8391 39.1979 86.1466 42.8072 85.3772 46.4554C84.6078 50.1035 83.8768 53.5576 83.1844 56.8176C82.5688 60.0776 81.9918 62.8719 81.4532 65.2005C79.9143 71.5653 77.5292 76.5718 74.2976 80.2199C71.0661 83.7904 67.4883 86.3131 63.5643 87.7878C59.7172 89.2626 56.024 90 52.4847 90Z" fill="white"/>
<path d="M78.3307 87.2057C81.7162 76.8047 84.9477 66.6753 88.0254 56.8176C89.3334 52.7814 90.6798 48.4735 92.0648 43.8939C93.4497 39.3144 94.8347 34.7348 96.2196 30.1552C97.6046 25.4981 98.9126 21.0349 100.144 16.7659C101.375 12.4968 102.413 8.69341 103.26 5.35576C107.492 5.35576 111.493 5.1229 115.263 4.65718C117.186 4.42432 119.148 4.19146 121.149 3.95861C123.226 3.72575 125.342 3.5317 127.496 3.37646L126.804 9.0815C126.65 10.1682 126.496 11.2937 126.342 12.458C126.188 13.5446 126.035 14.6701 125.881 15.8344C125.727 16.9987 125.534 18.2018 125.304 19.4437C125.073 20.608 124.88 21.8111 124.727 23.053C124.419 25.4593 123.957 28.8357 123.342 33.1824C122.726 37.4515 121.995 42.1087 121.149 47.1539H122.649C124.88 41.2549 126.727 36.3648 128.189 32.4838C129.651 28.5252 130.843 25.304 131.767 22.8202C133.075 19.1721 134.498 15.4851 136.037 11.7594C137.576 8.03364 138.845 5.16171 139.846 3.1436C141.692 2.98836 143.885 2.7555 146.424 2.44502C149.04 2.05692 151.656 1.63002 154.272 1.16429C156.965 0.698577 159.273 0.310479 161.197 0C160.12 6.52006 159.119 13.1177 158.196 19.793C157.35 26.3907 156.58 32.7167 155.888 38.771C155.272 44.7477 154.734 50.1423 154.272 54.9547C153.81 59.7671 153.387 64.5407 153.003 69.2756C152.618 73.9327 152.233 78.5511 151.848 83.1307L131.767 86.74C131.767 86.5847 131.882 84.8383 132.113 81.5006C132.344 78.163 132.728 74.0104 133.267 69.0427C133.806 64.075 134.344 59.379 134.883 54.9547C135.421 50.4528 135.96 46.7659 136.499 43.8939H135.46C133.536 49.793 131.19 56.2354 128.42 63.2212C125.727 70.207 123.072 77.9301 120.456 86.3907C117.763 86.4683 115.455 86.5847 113.532 86.74C111.608 86.8176 109.377 86.934 106.838 87.0893L110.531 43.8939H108.8C108.723 44.7477 108.376 46.4166 107.761 48.9004C107.145 51.3066 106.414 54.1009 105.568 57.2833C104.722 60.3881 103.837 63.4929 102.914 66.5977C99.4512 78.784 97.6046 85.2264 97.3738 85.925L78.3307 87.2057Z" fill="white"/>
<path d="M174.139 88.37C169.061 88.37 164.906 86.3907 161.675 82.4321C158.443 78.4735 156.827 72.4968 156.827 64.5019C156.827 60.0776 157.366 55.4204 158.443 50.5304C159.52 45.6404 161.021 40.8279 162.944 36.0931C164.868 31.3583 167.099 26.9728 169.638 22.9366C173.716 16.4166 178.409 11.0996 183.718 6.98577C189.027 2.87193 194.606 0.81501 200.453 0.81501C205.07 0.81501 208.609 2.01812 211.071 4.42433C213.61 6.75291 215.38 9.78008 216.38 13.5058C217.38 17.1539 217.88 20.9573 217.88 24.9159C217.88 34.1527 216.457 42.7684 213.61 50.7633C210.84 58.6805 207.224 65.3946 202.761 70.9056C198.299 76.5718 193.529 80.9185 188.45 83.9457C183.449 86.8952 178.679 88.37 174.139 88.37ZM180.371 69.1591C183.834 69.1591 186.873 67.9948 189.489 65.6662C192.182 63.3376 194.452 60.3881 196.298 56.8176C198.145 53.1695 199.53 49.3661 200.453 45.4075C201.377 41.4489 201.838 37.8784 201.838 34.696C201.838 33.4541 201.723 32.1345 201.492 30.7374C201.261 29.2626 200.761 27.9819 199.992 26.8952C199.222 25.8085 198.03 25.2652 196.414 25.2652C192.874 25.2652 189.681 26.5847 186.835 29.2238C183.988 31.7853 181.603 35.0453 179.679 39.0039C177.755 43.0401 176.332 46.9987 175.409 50.8797C174.485 54.7607 174.024 58.2924 174.024 61.4748C174.024 63.1048 174.601 64.8124 175.755 66.5977C176.909 68.3053 178.448 69.1591 180.371 69.1591Z" fill="white"/>
<path d="M210.628 88.0207L216.63 57.749C217.553 52.1604 218.553 46.4166 219.631 40.5175C220.708 34.6184 221.708 28.7969 222.631 23.053C223.632 17.3092 224.401 11.9146 224.94 6.86934C229.325 5.47219 234.057 4.46313 239.135 3.84217C244.213 3.1436 249.253 2.79431 254.254 2.79431C260.102 2.79431 264.064 4.07504 266.142 6.63649C268.296 9.19793 269.373 12.652 269.373 16.9987C269.373 20.9573 268.45 24.9547 266.603 28.9909C264.757 32.9496 262.333 36.5589 259.332 39.8189C256.409 43.0013 253.177 45.5239 249.638 47.3868C251.023 50.4916 252.485 53.9069 254.024 57.6326C255.639 61.2807 257.14 64.7736 258.525 68.1113C259.294 70.0518 260.063 71.9922 260.833 73.9327C261.679 75.8732 262.487 77.8137 263.257 79.7542L245.368 86.0414L241.213 72.0699C240.059 68.1889 238.981 64.4631 237.981 60.8926C237.058 57.2445 236.519 54.6831 236.365 53.2083L234.865 53.674C234.634 54.9159 234.365 56.2743 234.057 57.749C233.826 59.1462 233.557 60.6986 233.249 62.4062C232.941 64.1138 232.634 65.7827 232.326 67.4127C232.018 68.9651 231.71 70.5175 231.403 72.0699L229.325 83.1307L210.628 88.0207ZM237.75 37.4903C239.135 37.3351 240.828 36.7529 242.829 35.7439C244.906 34.6572 246.945 33.3376 248.945 31.7853C251.023 30.2329 252.754 28.6417 254.139 27.0117C255.524 25.3816 256.216 23.9457 256.216 22.7038C256.216 21.1514 255.293 20.1423 253.446 19.6766C251.677 19.1332 249.33 18.8616 246.406 18.8616H243.867C243.406 18.9392 242.982 18.978 242.598 18.978C242.213 18.978 241.828 18.978 241.444 18.978L237.75 37.4903Z" fill="white"/>
<path d="M291.34 87.6714C291.494 86.3519 291.648 85.0712 291.802 83.8292C291.956 82.5873 292.11 81.3454 292.264 80.1035L292.956 73.5834C293.033 72.4968 293.11 71.4877 293.187 70.5563C293.264 69.6248 293.341 68.771 293.418 67.9948H283.377L278.76 84.7607C277.068 84.9935 275.067 85.2652 272.759 85.5757C270.451 85.8085 268.296 86.0414 266.296 86.2743C265.065 86.4295 263.834 86.5847 262.603 86.74C261.449 86.8952 260.256 87.0505 259.025 87.2057L268.143 56.7012C269.22 53.053 270.451 48.9004 271.836 44.2432C273.221 39.586 274.606 34.8124 275.991 29.9224C277.453 25.0323 278.799 20.4528 280.03 16.1837C281.338 11.837 282.377 8.18888 283.146 5.23933C288.378 4.85123 293.687 4.38551 299.073 3.84217C304.536 3.29884 309.845 2.56145 315 1.63001C314.615 5.97671 314.231 10.9056 313.846 16.4166C313.538 21.8499 313.23 27.4774 312.923 33.2988C312.692 39.1203 312.422 44.8642 312.115 50.5304C311.961 55.8862 311.768 61.436 311.538 67.1798C311.307 72.8461 311.076 78.6675 310.845 84.6442C309.691 84.7995 308.537 84.9547 307.383 85.11C306.229 85.2652 305.075 85.4204 303.92 85.5757C301.997 85.8862 299.881 86.2355 297.573 86.6236C295.264 87.0116 293.187 87.3609 291.34 87.6714ZM286.147 56.3519C286.609 56.3519 287.455 56.3131 288.686 56.2355C289.994 56.1578 291.225 56.0802 292.379 56.0026C293.533 55.925 294.226 55.8862 294.457 55.8862C294.457 54.8771 294.611 52.8202 294.918 49.7154C295.226 46.6106 295.534 43.3506 295.842 39.9353C295.995 37.9172 296.149 35.8603 296.303 33.7646C296.534 31.5912 296.765 29.379 296.996 27.1281L297.688 16.9987L295.957 17.1151L293.302 27.1281L286.147 56.3519Z" fill="white"/>
</svg>
